# MagicaVoxel @ Ephtracy

# group
o 

# material
mtllib cube2.mtl
usemtl palette

# normals
vn -1 0 0
vn 1 0 0
vn 0 0 1
vn 0 0 -1
vn 0 -1 0
vn 0 1 0

# texcoords
vt 0.876953 0.5
vt 0.958984 0.5
vt 0.994141 0.5

# verts
v -2 0 2
v -2 0 -2
v -2 0.1 1.9
v -2 0.1 -1.9
v -2 3.9 1.9
v -2 3.9 -1.9
v -2 4 2
v -2 4 -2
v 2 0 2
v 2 0 -2
v 2 0.1 1.9
v 2 0.1 -1.9
v 2 3.9 1.9
v 2 3.9 -1.9
v 2 4 2
v 2 4 -2
v -2 0 2
v -2 4 2
v -1.9 0.1 2
v -1.9 3.9 2
v 1.9 0.1 2
v 1.9 3.9 2
v 2 0 2
v 2 4 2
v -2 0 -2
v -2 4 -2
v -1.9 0.1 -2
v -1.9 3.9 -2
v -1.8 0.1 -2
v -1.8 3.9 -2
v 1.9 0.1 -2
v 1.9 3.9 -2
v 2 0 -2
v 2 4 -2
v -2 0 2
v 2 0 2
v -1.9 0 1.9
v 1.9 0 1.9
v -1.9 0 -1.8
v 1.9 0 -1.8
v -1.9 0 -1.9
v 1.9 0 -1.9
v -2 0 -2
v 2 0 -2
v -2 4 2
v 2 4 2
v -1.9 4 1.9
v -1.8 4 1.9
v 1.9 4 1.9
v -1.9 4 -1.9
v -1.8 4 -1.9
v 1.9 4 -1.9
v -2 4 -2
v 2 4 -2

# faces
f 3/2/1 2/2/1 1/2/1
f 4/2/1 2/2/1 3/2/1
f 5/2/1 3/2/1 1/2/1
f 5/1/1 4/1/1 3/1/1
f 6/2/1 2/2/1 4/2/1
f 6/1/1 4/1/1 5/1/1
f 7/2/1 5/2/1 1/2/1
f 7/2/1 6/2/1 5/2/1
f 8/2/1 2/2/1 6/2/1
f 8/2/1 6/2/1 7/2/1
f 9/2/2 10/2/2 11/2/2
f 11/2/2 10/2/2 12/2/2
f 9/2/2 11/2/2 13/2/2
f 11/1/2 12/1/2 13/1/2
f 12/2/2 10/2/2 14/2/2
f 13/1/2 12/1/2 14/1/2
f 9/2/2 13/2/2 15/2/2
f 13/2/2 14/2/2 15/2/2
f 14/2/2 10/2/2 16/2/2
f 15/2/2 14/2/2 16/2/2
f 19/2/3 18/2/3 17/2/3
f 20/2/3 18/2/3 19/2/3
f 21/2/3 19/2/3 17/2/3
f 21/1/3 20/1/3 19/1/3
f 22/2/3 18/2/3 20/2/3
f 22/1/3 20/1/3 21/1/3
f 23/2/3 21/2/3 17/2/3
f 23/2/3 22/2/3 21/2/3
f 24/2/3 18/2/3 22/2/3
f 24/2/3 22/2/3 23/2/3
f 25/2/4 26/2/4 27/2/4
f 27/2/4 26/2/4 28/2/4
f 25/2/4 27/2/4 29/2/4
f 27/3/4 28/3/4 29/3/4
f 28/2/4 26/2/4 30/2/4
f 29/3/4 28/3/4 30/3/4
f 25/2/4 29/2/4 31/2/4
f 29/1/4 30/1/4 31/1/4
f 30/2/4 26/2/4 32/2/4
f 31/1/4 30/1/4 32/1/4
f 25/2/4 31/2/4 33/2/4
f 31/2/4 32/2/4 33/2/4
f 32/2/4 26/2/4 34/2/4
f 33/2/4 32/2/4 34/2/4
f 37/2/5 36/2/5 35/2/5
f 38/2/5 36/2/5 37/2/5
f 39/2/5 37/2/5 35/2/5
f 39/1/5 38/1/5 37/1/5
f 40/2/5 36/2/5 38/2/5
f 40/1/5 38/1/5 39/1/5
f 41/2/5 39/2/5 35/2/5
f 41/3/5 40/3/5 39/3/5
f 42/2/5 36/2/5 40/2/5
f 42/3/5 40/3/5 41/3/5
f 43/2/5 41/2/5 35/2/5
f 43/2/5 42/2/5 41/2/5
f 44/2/5 36/2/5 42/2/5
f 44/2/5 42/2/5 43/2/5
f 45/2/6 46/2/6 47/2/6
f 47/2/6 46/2/6 48/2/6
f 48/2/6 46/2/6 49/2/6
f 45/2/6 47/2/6 50/2/6
f 47/3/6 48/3/6 50/3/6
f 48/1/6 49/1/6 51/1/6
f 50/3/6 48/3/6 51/3/6
f 49/2/6 46/2/6 52/2/6
f 51/1/6 49/1/6 52/1/6
f 50/2/6 51/2/6 53/2/6
f 45/2/6 50/2/6 53/2/6
f 51/2/6 52/2/6 53/2/6
f 52/2/6 46/2/6 54/2/6
f 53/2/6 52/2/6 54/2/6
